<?xml version="1.0" encoding="utf-8"?>
<!-- Generator: Adobe Illustrator 16.0.0, SVG Export Plug-In . SVG Version: 6.00 Build 0)  182/62 -->
<!DOCTYPE svg PUBLIC "-//W3C//DTD SVG 1.1//EN" "http://www.w3.org/Graphics/SVG/1.1/DTD/svg11.dtd">
<svg version="1.1" id="Layer_1" xmlns="http://www.w3.org/2000/svg" xmlns:xlink="http://www.w3.org/1999/xlink" x="0px" y="0px"
	 viewBox="25 12 150 51"  xml:space="preserve">
<g>
	<path fill-rule="evenodd" clip-rule="evenodd" d="M47.317,21.484c-0.278,1.122-0.549,2.215-0.763,3.08
		c-2.166-0.148-4.206-0.319-6.249-0.41c-0.613-0.027-1.252,0.112-1.852,0.273c-1.181,0.317-1.636,1.001-1.625,2.289
		c0.008,1.104,0.417,1.646,1.67,1.924c1.696,0.375,3.435,0.562,5.114,0.995c2.997,0.773,4.268,2.627,4.195,5.706
		c-0.087,3.792-2.104,5.407-5.433,5.865c-2.97,0.408-5.935,0.286-8.858-0.496c-0.476-0.127-0.542-0.349-0.448-0.723
		c0.227-0.906,0.473-1.807,0.71-2.705c1.206,0.176,2.357,0.338,3.506,0.514c1.577,0.241,3.141,0.218,4.688-0.211
		c1.069-0.296,1.561-0.888,1.658-2.016c0.094-1.092-0.236-1.863-1.231-2.2c-1.098-0.371-2.269-0.519-3.405-0.773
		c-1.165-0.26-2.358-0.438-3.483-0.82c-1.456-0.496-2.396-1.582-2.646-3.117c-0.401-2.479-0.279-4.917,1.978-6.51
		c1.031-0.728,2.37-1.234,3.626-1.389C41.399,20.399,44.344,20.532,47.317,21.484z"/>
	<path fill-rule="evenodd" clip-rule="evenodd" d="M135.315,26.449c0-1.903,0-3.939,0-6.041c1.201,0,2.359,0,3.6,0
		c0.014,0.265,0.041,0.541,0.041,0.816c0.004,6.146,0.011,12.292-0.013,18.437c-0.002,0.288-0.234,0.765-0.46,0.835
		c-2.846,0.9-5.76,1.23-8.709,0.644c-2.28-0.454-3.5-1.989-3.938-4.222c-0.488-2.484-0.492-4.935,0.31-7.369
		c0.784-2.377,2.699-3.471,4.955-3.505C132.474,26.023,133.851,26.298,135.315,26.449z M135.317,34.018
		c0-1.033-0.033-2.069,0.01-3.1c0.038-0.912-0.415-1.478-1.236-1.579c-0.976-0.12-1.981-0.095-2.967-0.024
		c-0.798,0.057-1.262,0.643-1.469,1.375c-0.558,1.971-0.505,3.951-0.035,5.935c0.21,0.887,0.77,1.494,1.625,1.536
		c1.212,0.059,2.437-0.075,3.651-0.196c0.16-0.017,0.392-0.435,0.402-0.674C135.341,36.201,135.317,35.109,135.317,34.018z"/>
	<path fill-rule="evenodd" clip-rule="evenodd" d="M118.726,32.037c0.149-2.095-0.409-2.854-2.394-2.874
		c-1.584-0.017-3.176,0.225-4.754,0.426c-0.544,0.069-0.852,0.122-0.926-0.567c-0.08-0.726-0.304-1.437-0.489-2.253
		c0.824-0.176,1.592-0.455,2.37-0.485c2.051-0.08,4.119-0.198,6.155-0.023c1.977,0.17,3.405,1.754,3.51,3.848
		c0.161,3.237,0.13,6.482,0.133,9.725c0,0.223-0.369,0.583-0.623,0.645c-1.355,0.333-2.721,0.769-4.1,0.833
		c-1.757,0.081-3.54-0.075-5.291-0.288c-1.372-0.167-2.329-1.077-2.515-2.449c-0.17-1.256-0.227-2.581-0.02-3.822
		c0.29-1.748,1.462-2.746,3.279-2.846c1.698-0.093,3.411,0.077,5.117,0.129C118.345,32.042,118.512,32.037,118.726,32.037z
		 M118.795,36.439c0-0.315-0.035-0.635,0.008-0.944c0.103-0.741-0.179-1.052-0.938-1.023c-0.54,0.021-1.084-0.108-1.626-0.105
		c-2.587,0.011-3.057,0.302-2.768,2.861c0.049,0.429,0.506,1.062,0.883,1.153c0.865,0.208,1.832,0.32,2.696,0.15
		C119.16,38.117,118.759,38.621,118.795,36.439z"/>
	<path fill-rule="evenodd" clip-rule="evenodd" d="M155.317,34.679c-3.072,0-6.11,0-9.133,0c-0.471,1.993,0.746,3.627,2.693,3.583
		c1.62-0.037,3.238-0.205,5.021-0.326c0.152,0.752,0.34,1.678,0.54,2.667c-2.727,0.817-5.422,1.177-8.145,0.403
		c-1.771-0.504-2.948-1.759-3.5-3.499c-0.715-2.254-0.797-4.57-0.238-6.87c0.711-2.924,2.255-4.317,5.222-4.577
		c1.299-0.113,2.648-0.024,3.934,0.205c1.315,0.234,2.324,1.066,2.927,2.31C155.274,29.888,155.65,33.056,155.317,34.679z
		 M152.029,31.819c0.008-0.949-0.068-1.952-0.829-2.431c-1.193-0.751-2.596-0.665-3.864-0.092c-1.014,0.459-1.123,1.475-1.173,2.523
		C148.128,31.819,150.041,31.819,152.029,31.819z"/>
	<path fill-rule="evenodd" clip-rule="evenodd" d="M62.191,37.76c0.203,0.95,0.396,1.86,0.608,2.851
		c-2.783,0.799-5.532,1.209-8.297,0.355c-2.037-0.629-3.18-2.214-3.604-4.231c-0.438-2.083-0.496-4.214,0.042-6.299
		c0.715-2.765,2.359-4.185,5.213-4.382c1.301-0.09,2.652-0.028,3.929,0.226c1.624,0.323,2.799,1.404,3.147,3.051
		c0.361,1.711,0.493,3.471,0.742,5.346c-3.325,0-6.379,0-9.414,0c-0.379,2.318,0.68,3.595,2.894,3.598
		c0.773,0,1.554,0.028,2.321-0.053C60.536,38.141,61.287,37.938,62.191,37.76z M60.286,31.83c0.093-1.059,0.038-2.111-0.971-2.578
		c-1.222-0.565-2.578-0.565-3.781,0.115c-0.899,0.508-1.038,1.466-1.07,2.463C56.45,31.83,58.356,31.83,60.286,31.83z"/>
	<path fill-rule="evenodd" clip-rule="evenodd" d="M78.951,29.609c0,3.88,0,7.602,0,11.378c-1.227,0-2.384,0-3.612,0
		c0-3.762,0-7.484,0-11.342c-0.627,0-1.188-0.023-1.746,0.006c-0.512,0.027-0.736-0.147-0.707-0.686
		c0.035-0.659,0.026-1.321,0.004-1.981c-0.015-0.446,0.161-0.625,0.605-0.608c0.567,0.021,1.136,0.005,1.719,0.005
		c0.095-0.792,0.167-1.495,0.263-2.197c0.309-2.23,1.441-3.4,3.665-3.803c1.469-0.266,4.288,0.04,5.553,0.629
		c-0.26,0.909-0.523,1.83-0.776,2.713c-0.892-0.098-1.707-0.247-2.523-0.264c-1.908-0.041-2.661,0.884-2.346,2.902
		c1.492,0,3.002,0,4.575,0c0,1.113,0,2.132,0,3.248C82.088,29.609,80.583,29.609,78.951,29.609z"/>
	<path fill-rule="evenodd" clip-rule="evenodd" d="M87.563,29.648c-0.842,0-1.555,0-2.343,0c0-1.084,0-2.124,0-3.254
		c0.756,0,1.491,0,2.341,0c0-0.679-0.031-1.275,0.016-1.866c0.018-0.241,0.143-0.601,0.322-0.683c1.03-0.47,2.092-0.874,3.268-1.349
		c0,1.33,0,2.545,0,3.878c1.345,0,2.598,0.035,3.848-0.013c0.756-0.029,1.049,0.154,1.024,0.996
		c-0.069,2.28-0.024,2.281-2.294,2.286c-0.803,0.001-1.607,0-2.551,0c0,0.517,0,0.991,0,1.466c0,1.522,0.044,3.047-0.009,4.569
		c-0.097,2.737,1.415,2.775,3.167,2.539c1.544-0.208,1.532-0.286,1.841,1.301c0.055,0.28,0.18,0.562,0.162,0.835
		c-0.013,0.193-0.178,0.491-0.338,0.542c-1.72,0.545-3.505,0.692-5.267,0.4c-2.244-0.371-3.03-1.643-3.161-4.225
		c-0.112-2.208-0.024-4.425-0.024-6.638C87.563,30.208,87.563,29.982,87.563,29.648z"/>
	<path fill-rule="evenodd" clip-rule="evenodd" d="M66.874,20.391c1.237,0,2.371,0,3.623,0c0,0.382,0,0.717,0,1.052
		c-0.003,4.62-0.004,9.241-0.009,13.861c-0.001,1.734-0.155,3.498,1.106,5.04c-1.089,0.478-2.075,0.91-3.127,1.372
		c-1.004-0.914-1.548-2.138-1.562-3.444C66.836,32.335,66.874,26.398,66.874,20.391z"/>
	<path fill-rule="evenodd" clip-rule="evenodd" d="M99.007,26.384c1.065,0,2.092-0.034,3.114,0.028
		c0.214,0.013,0.406,0.378,0.687,0.658c1.293-1.193,3.033-1.127,4.868-1.011c0,1.143,0,2.269,0,3.278
		c-1.111,0.053-2.203,0.004-3.257,0.177c-1.549,0.255-1.839,0.689-1.841,2.253c-0.002,3.044,0,6.088,0,9.201
		c-1.187,0-2.347,0-3.569,0C99.007,36.158,99.007,31.326,99.007,26.384z"/>
</g>
</svg>
